<svg width="126" height="125" viewBox="0 0 126 125" fill="none" xmlns="http://www.w3.org/2000/svg">
<path d="M126 28.0547C126 43.5489 113.539 56.1094 98.1679 56.1094C82.7967 56.1094 70.3359 43.5489 70.3359 28.0547C70.3359 12.5605 82.7967 0 98.1679 0C113.539 0 126 12.5605 126 28.0547Z" fill="#FFF170"/>
<path d="M1 70.1836C1 57.8154 12.5221 47.7891 26.7353 47.7891H100.265C114.478 47.7891 126 57.8154 126 70.1836C126 82.5517 114.478 92.5781 100.265 92.5781H26.7353C12.5221 92.5781 1 82.5517 1 70.1836Z" fill="white"/>
<path d="M20.2536 46.7226C20.2536 29.6428 36.165 15.7969 55.7928 15.7969C75.4206 15.7969 91.332 29.6428 91.332 46.7226C91.332 63.8025 75.4206 77.6484 55.7928 77.6484C36.165 77.6484 20.2536 63.8025 20.2536 46.7226Z" fill="white"/>
</svg>
