<svg width="125" height="125" viewBox="0 0 125 125" fill="none" xmlns="http://www.w3.org/2000/svg">
<g clip-path="url(#clip0_33_22)">
<path d="M125 27.832C125 43.2032 112.539 55.6641 97.168 55.6641C81.7968 55.6641 69.3359 43.2032 69.3359 27.832C69.3359 12.4608 81.7968 0 97.168 0C112.539 0 125 12.4608 125 27.832Z" fill="#FFF170"/>
<path d="M0 69.5801C0 57.3101 11.5221 47.3633 25.7353 47.3633H99.2647C113.478 47.3633 125 57.3101 125 69.5801C125 81.8501 113.478 91.7969 99.2647 91.7969H25.7353C11.5221 91.7969 0 81.8501 0 69.5801Z" fill="white"/>
<path d="M19.2536 46.3053C19.2536 29.3611 35.1651 15.625 54.7928 15.625C74.4206 15.625 90.332 29.3611 90.332 46.3053C90.332 63.2496 74.4206 76.9857 54.7928 76.9857C35.1651 76.9857 19.2536 63.2496 19.2536 46.3053Z" fill="white"/>
<rect width="4.57617" height="14.519" rx="2.28808" transform="matrix(0.839224 0.543786 -0.457452 0.889235 48.6339 98.6328)" fill="#53B0F3"/>
<rect width="4.57617" height="14.519" rx="2.28808" transform="matrix(0.839224 0.543786 -0.457452 0.889235 71.0013 98.6328)" fill="#53B0F3"/>
<rect width="4.57617" height="14.519" rx="2.28808" transform="matrix(0.839224 0.543786 -0.457452 0.889235 56.6417 110)" fill="#53B0F3"/>
<rect width="4.57617" height="14.519" rx="2.28808" transform="matrix(0.839224 0.543786 -0.457452 0.889235 77.6417 110)" fill="#53B0F3"/>
</g>
<defs>
<clipPath id="clip0_33_22">
<rect width="125" height="125" fill="white"/>
</clipPath>
</defs>
</svg>
