<svg width="125" height="125" viewBox="0 0 125 125" fill="none" xmlns="http://www.w3.org/2000/svg">
<g clip-path="url(#clip0_33_23)">
<path d="M125 27.832C125 43.2032 112.539 55.6641 97.168 55.6641C81.7968 55.6641 69.3359 43.2032 69.3359 27.832C69.3359 12.4608 81.7968 0 97.168 0C112.539 0 125 12.4608 125 27.832Z" fill="#FFF170"/>
<path d="M0 70.6504C0 58.3804 11.5221 48.4336 25.7353 48.4336H99.2647C113.478 48.4336 125 58.3804 125 70.6504C125 82.9204 113.478 92.8672 99.2647 92.8672H25.7353C11.5221 92.8672 0 82.9204 0 70.6504Z" fill="white"/>
<path d="M19.2536 47.3757C19.2536 30.4314 35.165 16.6953 54.7928 16.6953C74.4206 16.6953 90.332 30.4314 90.332 47.3757C90.332 64.3199 74.4206 78.056 54.7928 78.056C35.165 78.056 19.2536 64.3199 19.2536 47.3757Z" fill="white"/>
<circle cx="54.1367" cy="117.324" r="7.32422" fill="white"/>
<circle cx="78.5508" cy="117.324" r="7.32422" fill="white"/>
<circle cx="43.3945" cy="104.395" r="4.39453" fill="white"/>
<circle cx="67.8086" cy="104.395" r="4.39453" fill="white"/>
</g>
<defs>
<clipPath id="clip0_33_23">
<rect width="125" height="125" fill="white"/>
</clipPath>
</defs>
</svg>
