<svg width="125" height="125" viewBox="0 0 125 125" fill="none" xmlns="http://www.w3.org/2000/svg">
<g clip-path="url(#clip0_33_19)">
<rect width="4.57617" height="14.519" rx="2.28808" transform="matrix(0.839224 0.543786 -0.457452 0.889235 48.6339 98.6328)" fill="#53B0F3"/>
<rect width="4.57617" height="14.519" rx="2.28808" transform="matrix(0.839224 0.543786 -0.457452 0.889235 71.0013 98.6328)" fill="#53B0F3"/>
<rect width="4.57617" height="14.519" rx="2.28808" transform="matrix(0.839224 0.543786 -0.457452 0.889235 56.6223 110)" fill="#53B0F3"/>
<rect width="4.57617" height="14.519" rx="2.28808" transform="matrix(0.839224 0.543786 -0.457452 0.889235 78.1908 110)" fill="#53B0F3"/>
<path fill-rule="evenodd" clip-rule="evenodd" d="M88.7966 0.735262C84.0275 9.84789 86.1322 22.2796 94.713 31.1075C103.294 39.9354 115.661 42.3923 124.905 37.8838C123.688 39.9984 122.16 41.9816 120.324 43.7666C109.659 54.1324 92.6112 53.8903 82.2454 43.226C71.8797 32.5616 72.1217 15.5133 82.7861 5.14757C84.6225 3.36255 86.6483 1.8921 88.7966 0.735262Z" fill="#FFF170"/>
<path d="M0 69.5801C0 57.3101 11.5221 47.3633 25.7353 47.3633H99.2647C113.478 47.3633 125 57.3101 125 69.5801C125 81.8501 113.478 91.7969 99.2647 91.7969H25.7353C11.5221 91.7969 0 81.8501 0 69.5801Z" fill="white"/>
<path d="M19.2536 46.3053C19.2536 29.3611 35.165 15.625 54.7928 15.625C74.4206 15.625 90.332 29.3611 90.332 46.3053C90.332 63.2496 74.4206 76.9857 54.7928 76.9857C35.165 76.9857 19.2536 63.2496 19.2536 46.3053Z" fill="white"/>
</g>
<defs>
<clipPath id="clip0_33_19">
<rect width="125" height="125" fill="white"/>
</clipPath>
</defs>
</svg>
