<svg width="125" height="125" viewBox="0 0 125 125" fill="none" xmlns="http://www.w3.org/2000/svg">
<g clip-path="url(#clip0_33_24)">
<path fill-rule="evenodd" clip-rule="evenodd" d="M88.3586 0.731621C83.613 9.7993 85.7074 22.1697 94.2458 30.9541C102.784 39.7384 115.09 42.1832 124.289 37.697C123.077 39.8011 121.558 41.7745 119.73 43.5507C109.119 53.8654 92.1543 53.6245 81.8397 43.0127C71.5251 32.401 71.766 15.4368 82.3777 5.12218C84.2051 3.34596 86.2209 1.88275 88.3586 0.731621Z" fill="#FFF170"/>
<path d="M0 70.5408C0 58.3313 11.4652 48.4336 25.6083 48.4336H98.775C112.918 48.4336 124.383 58.3313 124.383 70.5408C124.383 82.7503 112.918 92.648 98.775 92.648H25.6083C11.4652 92.648 0 82.7503 0 70.5408Z" fill="white"/>
<path d="M19.1586 47.3809C19.1586 30.5202 34.9916 16.8519 54.5225 16.8519C74.0535 16.8519 89.8864 30.5202 89.8864 47.3809C89.8864 64.2416 74.0535 77.9099 54.5225 77.9099C34.9916 77.9099 19.1586 64.2416 19.1586 47.3809Z" fill="white"/>
<circle cx="54.1992" cy="117.324" r="7.32422" fill="white"/>
<circle cx="78.6133" cy="117.324" r="7.32422" fill="white"/>
<circle cx="43.457" cy="104.395" r="4.39453" fill="white"/>
<circle cx="67.8711" cy="104.395" r="4.39453" fill="white"/>
</g>
<defs>
<clipPath id="clip0_33_24">
<rect width="125" height="125" fill="white"/>
</clipPath>
</defs>
</svg>
