<svg width="125" height="125" viewBox="0 0 125 125" fill="none" xmlns="http://www.w3.org/2000/svg">
<g clip-path="url(#clip0_33_17)">
<path fill-rule="evenodd" clip-rule="evenodd" d="M88.7966 0.735245C84.0275 9.84787 86.1322 22.2796 94.713 31.1075C103.294 39.9354 115.661 42.3923 124.905 37.8838C123.688 39.9985 122.16 41.9816 120.324 43.7666C109.659 54.1324 92.6112 53.8903 82.2454 43.226C71.8797 32.5616 72.1217 15.5133 82.7861 5.14757C84.6225 3.36254 86.6483 1.89208 88.7966 0.735245Z" fill="#FFF170"/>
<path d="M0 70.6504C0 58.3804 11.5221 48.4336 25.7353 48.4336H99.2647C113.478 48.4336 125 58.3804 125 70.6504C125 82.9204 113.478 92.8672 99.2647 92.8672H25.7353C11.5221 92.8672 0 82.9204 0 70.6504Z" fill="white"/>
<path d="M19.2536 47.3757C19.2536 30.4314 35.165 16.6953 54.7928 16.6953C74.4206 16.6953 90.332 30.4314 90.332 47.3757C90.332 64.32 74.4206 78.056 54.7928 78.056C35.165 78.056 19.2536 64.32 19.2536 47.3757Z" fill="white"/>
</g>
<defs>
<clipPath id="clip0_33_17">
<rect width="125" height="125" fill="white"/>
</clipPath>
</defs>
</svg>
