<svg width="126" height="91" viewBox="0 0 126 91" fill="none" xmlns="http://www.w3.org/2000/svg">
<path d="M126 28.6371C126 44.1313 113.439 56.6918 97.9453 56.6918C82.4511 56.6918 69.8906 44.1313 69.8906 28.6371C69.8906 13.143 82.4511 0.582458 97.9453 0.582458C113.439 0.582458 126 13.143 126 28.6371Z" fill="#FFF170"/>
<path d="M0 67.766C0 55.3979 11.6143 45.3715 25.9412 45.3715H100.059C114.386 45.3715 126 55.3979 126 67.766C126 80.1342 114.386 90.1606 100.059 90.1606H25.9412C11.6143 90.1606 0 80.1342 0 67.766Z" fill="white"/>
<path d="M19.4076 44.3051C19.4076 27.2253 35.4464 13.3793 55.2312 13.3793C75.0159 13.3793 91.0547 27.2253 91.0547 44.3051C91.0547 61.3849 75.0159 75.2309 55.2312 75.2309C35.4464 75.2309 19.4076 61.3849 19.4076 44.3051Z" fill="white"/>
</svg>
