<svg width="195" height="194" viewBox="0 0 195 194" fill="none" xmlns="http://www.w3.org/2000/svg">
<path d="M195 71.8023C195 95.5955 175.712 114.884 151.919 114.884C128.125 114.884 108.837 95.5955 108.837 71.8023C108.837 48.0091 128.125 28.7209 151.919 28.7209C175.712 28.7209 195 48.0091 195 71.8023Z" fill="#FFF170"/>
<path d="M1.51166 131.89C1.51166 112.897 19.3468 97.5 41.3475 97.5H155.164C177.165 97.5 195 112.897 195 131.89C195 150.882 177.165 166.279 155.164 166.279H41.3475C19.3468 166.279 1.51166 150.882 1.51166 131.89Z" fill="white"/>
<path d="M31.3144 95.8624C31.3144 69.6342 55.9439 48.3721 86.3258 48.3721C116.708 48.3721 141.337 69.6342 141.337 95.8624C141.337 122.091 116.708 143.353 86.3258 143.353C55.9439 143.353 31.3144 122.091 31.3144 95.8624Z" fill="white"/>
</svg>
